<?xml version="1.0" encoding="utf-8" ?><svg xmlns="http://www.w3.org/2000/svg" xmlns:xlink="http://www.w3.org/1999/xlink" width="318" height="158" viewBox="0 0 318 158"><path fill="white" d="M101.947 9.77987C108.94 11.226 117.248 14.6891 123.016 18.9405C122.666 21.732 122.319 24.564 122.696 27.3729C123.249 31.3159 125.336 34.8814 128.502 37.2947C133.244 40.9043 137.893 40.6502 143.47 39.8985C146.633 44.6216 148.773 49.7259 150.781 55.0194C151.25 56.2567 151.91 57.5983 152.231 58.8619C152.459 59.7562 152.166 60.8654 152.42 61.9125C150.006 63.5057 147.815 65.1257 146.165 67.5617C143.774 71.0535 142.876 75.3548 143.669 79.5116C144.704 84.7183 148.123 88.2304 152.38 91.082C152.073 92.168 152.354 93.1556 152.099 94.1186C151.07 98.0053 149.073 102.486 147.37 106.143C141.725 118.274 141.61 110.027 132.497 113.391C126.624 115.559 122.598 121.441 122.567 127.665C122.56 128.913 123.203 133.3 122.751 134.184C121.587 136.458 108.382 141.246 105.354 142.311C104.288 142.706 103.184 143.011 102.096 143.339C99.5667 140.124 97.053 136.891 93.1536 135.265C87.3506 132.846 80.6434 133.912 76.3339 138.596C75.3463 139.669 73.8461 142.22 72.5649 142.694C70.1892 143.574 60.0423 138.993 57.5629 137.686C55.4045 136.547 53.3874 135.035 51.1759 134.035C52.312 129.642 52.3998 125.025 50.3038 120.889C47.4087 115.177 41.9903 112.29 35.7066 112.676C34.3625 112.758 32.1494 113.214 30.938 112.816C26.9909 109.045 23.1893 96.5987 22.0775 91.1241C24.7914 89.2395 27.2128 87.2254 28.9206 84.3327C31.0418 80.7397 31.4598 76.199 30.4089 72.1886C29.1883 67.5306 26.0014 64.4428 21.9601 62.1037C23.572 54.1628 26.6047 46.5783 30.9123 39.7153C33.8218 40.5778 37.4106 40.8147 40.3609 40.0857C44.3127 39.1093 47.7633 36.3492 49.8521 32.8874C52.4043 28.6579 52.4272 23.7885 51.2658 19.1279C56.816 14.7709 64.6258 11.9191 71.3424 10.0244C73.5758 9.88975 75.835 14.0512 77.5117 15.4861C80.4051 17.9624 84.2812 19.5754 88.1316 19.2462C94.7533 18.6801 98.0399 14.4439 101.947 9.77987ZM45.4273 50.2345C48.1675 49.8398 50.949 50.1405 53.6986 49.9053C58.8569 41.9557 68.7025 36.0564 77.8585 34.0969C88.9352 31.7263 100.307 33.5238 109.83 39.7094C119.603 45.9991 126.446 55.9443 128.829 67.3195C131.349 79.2854 128.793 91.2051 122.129 101.39C121.403 102.499 120.643 103.663 119.5 104.381L118.856 104.474C116.109 102.116 113.687 98.9754 111.299 96.2553C107.795 92.262 104.226 88.3149 100.773 84.2785C105.162 84.672 109.603 84.5555 113.153 81.5791C116.383 78.87 118.089 74.4957 118.417 70.3753C118.789 65.6934 117.571 60.7861 114.468 57.1804C111.991 54.3024 109.175 53.3168 105.475 53.0565C98.9625 52.5983 92.2275 52.9325 85.6958 52.9406C71.6491 53.0418 57.6018 53.0309 43.5552 52.9079C37.3285 66.216 35.9598 80.1636 41.0154 94.1276C45.5069 106.604 54.8052 116.763 66.8359 122.34C78.0601 127.577 91.5015 128.429 103.193 124.171C106.802 122.857 110.208 121.093 113.584 119.276L111.695 117.18C110.667 116.08 109.657 114.955 108.595 113.888C99.5566 119.767 88.208 121.123 77.7517 118.905C67.2144 116.669 57.5951 109.586 51.7731 100.608C45.3169 90.6402 43.1105 78.5062 45.6446 66.9038C45.882 65.8007 46.1171 64.6851 46.5175 63.6279C60.2831 64.0851 74.1962 63.6916 87.9781 63.6419C93.4253 63.6223 99.1817 63.2283 104.596 63.6708C105.463 63.7417 106.337 63.7952 106.959 64.4704C108.045 65.6493 108.091 67.8258 107.989 69.3275C107.893 70.7322 107.497 72.4008 106.413 73.3699C103.709 74.541 82.6833 73.7598 78.2836 73.8392C78.3073 71.4146 78.3377 68.9924 78.2548 66.5686C74.722 66.7536 71.0384 66.8781 67.5055 66.7025L67.5882 88.3597C67.5938 92.2835 67.7923 96.3069 67.5166 100.215C71.1246 99.8858 74.8079 100.096 78.4304 100.023C77.7764 92.0033 78.529 82.8664 78.2 74.5813L104.303 104.325C106.979 107.357 113.947 114.558 115.785 117.777C118.287 115.594 120.843 113.446 123.098 111.005C130.945 102.533 135.636 91.6175 136.381 80.094C137.423 66.5087 132.922 53.0803 123.903 42.8669C115.458 33.1984 103.549 27.2392 90.7479 26.2761C87.8177 26.0922 84.8779 26.1257 81.9527 26.3762C69.1049 28.1222 56.7341 34.4875 48.7959 44.9076C47.5129 46.5917 46.3826 48.3421 45.4273 50.2345Z"/><path fill="white" d="M218.963 19.1047C223.148 18.5925 227.796 18.9555 232.031 18.9513C240.465 18.9164 248.898 18.9355 257.332 19.0086C257.614 22.284 257.495 25.6792 257.499 28.9672C257.506 34.8321 257.482 40.697 257.427 46.5617L256.906 46.5511C251.007 46.4503 245.094 46.5217 239.193 46.5139C230.811 46.5027 221.272 45.6909 213.199 48.2073C208.801 49.578 204.801 52.1773 201.507 55.3668C195.762 60.9292 192.694 67.7936 192.574 75.8091C192.39 83.8386 195.41 91.611 200.966 97.4102C210.744 107.442 222.515 106.612 235.4 106.594C242.756 106.549 250.111 106.559 257.467 106.626L257.493 122.688C257.489 126.479 257.523 130.275 257.353 134.064C249.877 134.341 242.348 134.203 234.865 134.201C214.947 134.195 201.275 134.072 185.136 120.451C174.264 111.275 166.273 98.2704 165.073 83.89C163.661 66.9571 166.89 52.9802 178.073 39.7909C188.517 27.4744 202.913 20.4361 218.963 19.1047Z"/><path fill="white" d="M261.172 19.5798C265.517 19.246 270.01 19.4445 274.373 19.4394C280.598 19.4322 286.849 19.3149 293.069 19.5392C293.035 22.8293 293.413 45.3953 293.052 46.5061C293 46.6651 292.825 46.8909 292.737 47.0405C282.154 46.9566 271.543 47.3025 260.965 46.9882C260.962 42.6935 260.225 21.7773 261.172 19.5798ZM267.056 40.4934C273.386 40.4484 279.715 40.4446 286.045 40.4821C285.889 35.6566 285.939 30.8384 285.987 26.0116C279.698 26.0203 273.382 26.1523 267.096 25.9697C266.983 30.7815 267.343 35.7023 267.056 40.4934Z"/><path fill="white" d="M264.043 106.625C269.622 106.477 275.233 106.583 280.816 106.575C284.804 106.569 288.973 106.322 292.935 106.774C293.211 109.917 293.062 113.193 293.061 116.348C293.02 122.257 293.043 128.166 293.13 134.074L289.438 134.044C284.301 134.059 264.734 134.721 261.518 133.567C260.931 132.941 260.871 132.14 260.798 131.299C260.548 128.422 260.872 125.404 260.91 122.513C260.979 117.253 260.934 111.987 260.925 106.727L264.043 106.625ZM266.995 127.511C273.215 127.428 279.909 126.987 286.103 127.493C285.829 122.551 285.795 117.451 286.091 112.507C279.889 112.853 273.231 112.86 267.033 112.464C267.056 117.286 267.534 122.774 266.995 127.511Z"/><path fill="white" d="M270.002 50.3525C270.136 50.3891 270.118 50.3805 270.233 50.4235C270.274 50.4388 270.314 50.4555 270.355 50.4709C272.363 51.2263 286.532 69.6919 289.147 72.7778C284.98 75.2605 280.329 77.6289 275.887 79.5794L283.43 93.608C284.83 96.1993 286.553 98.8703 287.555 101.635L287.122 101.836C285.413 100.824 283.093 97.4183 281.721 95.821L270.901 83.217C268.667 80.6034 266.512 77.8562 264.074 75.4321C267.991 73.2595 272.655 71.9335 276.815 70.2381C274.954 63.7766 272.329 56.7011 270.002 50.3525Z"/></svg>